#!OML:ASF H:\Terrain\Patient Classification 1\Walking\liu\liu.ASF
:FULLY-SPECIFIED
:DEGREES
368
root 9.83899 17.3453 22.5449 5.94031 -3.90863 -0.530701
lowerback -5.18811 1.17819 -1.83454
upperback 0.113265 1.6341 1.59952
thorax 2.92761 0.775868 2.8032
lowerneck -21.3097 -4.51821 -11.595
upperneck 23.5424 -5.70724 11.6487
head 11.9609 -2.15148 5.41176
rclavicle 8.72168e-015 1.51076e-014
rhumerus -31.6438 17.3416 -88.443
rradius 42.0563
rwrist -17.1148
rhand -29.3756 -23.5525
rfingers 7.12502
rthumb -2.71448 -53.5149
lclavicle 8.72168e-015 1.51076e-014
lhumerus -46.3627 4.04292 80.8158
lradius 18.2674
lwrist -9.30073
lhand -9.537 -24.9496
lfingers 7.12502
lthumb 16.4295 4.37465
rfemur 3.90981 -2.20201 19.3068
rtibia 38.0194
rfoot 10.3388 2.41339
rtoes -17.3529
lfemur -29.3645 4.08433 -22.9457
ltibia 25.4139
lfoot -1.99962 5.49048
ltoes 2.63561
369
root 9.87199 17.3536 22.6988 5.75375 -3.94676 -0.334122
lowerback -4.56814 1.19267 -1.81083
upperback -0.851478 1.64822 1.54038
thorax 1.58823 0.812744 2.69518
lowerneck -15.5296 -3.36581 -13.029
upperneck 20.763 -4.56812 13.6232
head 9.738 -1.69828 6.44749
rclavicle -2.28851e-014 -2.3059e-014
rhumerus -34.2032 16.7703 -89.1421
rradius 41.6386
rwrist -17.0039
rhand -28.3739 -29.2365
rfingers 7.12502
rthumb -1.74705 -59.2091
lclavicle -2.28851e-014 -2.3059e-014
lhumerus -47.8971 2.54495 81.8506
lradius 19.2272
lwrist -7.52053
lhand -9.27845 -24.9018
lfingers 7.12502
lthumb 16.6784 4.40168
rfemur 1.93605 -2.81413 18.9616
rtibia 41.6673
rfoot 11.3442 2.91759
rtoes -22.1803
lfemur -28.3589 4.18721 -23.3365
ltibia 24.9706
lfoot -2.30376 5.32879
ltoes 2.19911
370
root 9.90028 17.3652 22.8614 5.62709 -4.04234 0.0577492
lowerback -4.63824 1.10158 -2.1585
upperback -0.163382 1.54792 1.40719
thorax 2.33591 0.741954 2.76105
lowerneck -19.8999 -4.28264 -12.2489
upperneck 22.97 -5.49783 12.4916
head 11.4827 -2.05507 5.86223
rclavicle -9.14409e-015 -2.46493e-014
rhumerus -33.0434 16.8101 -89.1575
rradius 40.8314
rwrist -17.1734
rhand -29.1775 -25.983
rfingers 7.12502
rthumb -2.52315 -55.9478
lclavicle -9.14409e-015 -2.46493e-014
lhumerus -45.9512 1.81052 82.7552
lradius 19.7081
lwrist -5.99294
lhand -9.14539 -24.8872
lfingers 7.12502
lthumb 16.8065 4.40545
rfemur 0.937258 -2.48395 18.3584
rtibia 44.818
rfoot 11.8598 1.51631
rtoes -15.4114
lfemur -27.5331 4.35252 -23.9221
ltibia 24.7781
lfoot -2.90571 5.14787
ltoes 2.33205
371
root 9.92294 17.4411 23.0274 5.56412 -4.32535 0.874007
lowerback -4.62466 0.979915 -3.14074
upperback 0.236489 1.44477 1.24509
thorax 2.72778 0.667 3.14627
lowerneck -20.7097 -4.05466 -12.1289
upperneck 22.5665 -5.10139 12.57
head 11.4285 -1.8294 5.92188
rclavicle -4.00054e-015 2.42517e-014
rhumerus -32.3971 17.1547 -89.2746
rradius 40.0195
rwrist -17.3223
rhand -29.6745 -22.6777
rfingers 7.12502
rthumb -3.00311 -52.6363
lclavicle -4.00054e-015 2.42517e-014
lhumerus -44.6728 1.1557 83.5867
lradius 20.3757
lwrist -4.88646
lhand -9.28887 -24.8916
lfingers 7.12502
lthumb 16.6684 4.41275
rfemur -1.00259 -1.97801 17.2628
rtibia 48.0881
rfoot 12.4937 0.230032
rtoes -14.1671
lfemur -26.5784 4.45077 -24.8879
ltibia 24.4365
lfoot -3.55745 5.11325
ltoes 2.31009
372
root 9.94416 17.4131 23.1574 5.56914 -4.55842 1.51614
lowerback -4.52156 1.01885 -3.78539
upperback 0.0174369 1.52883 1.1291
thorax 2.42417 0.711142 3.38853
lowerneck -20.8516 -4.34847 -12.1474
upperneck 23.0956 -5.42292 12.1254
head 11.6914 -2.02825 5.72258
rclavicle -1.49834e-014 -4.37326e-015
rhumerus -33.3655 16.9182 -89.4007
rradius 39.6593
rwrist -17.3502
rhand -29.7883 -23.7185
rfingers 7.12502
rthumb -3.11305 -53.6755
lclavicle -1.49834e-014 -4.37326e-015
lhumerus -44.5729 -0.172656 84.7526
lradius 21.1685
lwrist -3.46218
lhand -9.50853 -24.8764
lfingers 7.12502
lthumb 16.4569 4.44554
rfemur -2.49524 -2.66849 16.5784
rtibia 50.7946
rfoot 12.8567 -0.341664
rtoes -17.9311
lfemur -25.9635 4.53483 -25.6976
ltibia 24.1922
lfoot -3.88348 5.18319
ltoes 3.19192
373
root 9.96785 17.4208 23.2977 5.55477 -4.77842 1.84595
lowerback -4.83614 1.04849 -3.99772
upperback 0.432418 1.60329 0.957671
thorax 3.02286 0.725264 3.35061
lowerneck -21.3868 -4.29292 -11.6596
upperneck 22.8517 -5.3282 11.7718
head 11.6629 -1.96757 5.50556
rclavicle 6.88292e-015 -1.82882e-014
rhumerus -33.0757 16.3356 -89.374
rradius 39.2525
rwrist -17.0362
rhand -29.6086 -24.9151
rfingers 7.12502
rthumb -2.93949 -54.8746
lclavicle 6.88292e-015 -1.82882e-014
lhumerus -43.229 -1.49304 85.6423
lradius 21.6405
lwrist -2.18065
lhand -10.0773 -25.1118
lfingers 7.12502
lthumb 15.9092 4.2547
rfemur -4.21341 -2.9767 16.1904
rtibia 53.6172
rfoot 12.844 -1.19739
rtoes -22.2548
lfemur -25.109 4.78904 -26.1916
ltibia 23.7229
lfoot -4.28954 5.10895
ltoes 3.77117
374
root 9.98431 17.4336 23.4453 5.45072 -5.08498 2.10151
lowerback -4.96289 1.0287 -4.33385
upperback 0.900002 1.61346 0.881485
thorax 3.57197 0.702852 3.47315
lowerneck -22.9871 -4.26032 -10.9375
upperneck 23.4594 -5.20514 11.0392
head 12.1468 -1.89527 5.14617
rclavicle -7.77745e-015 -1.43125e-014
rhumerus -32.3714 16.1258 -89.4016
rradius 38.4311
rwrist -16.6282
rhand -29.0064 -25.1832
rfingers 7.12502
rthumb -2.35791 -55.1499
lclavicle -7.77745e-015 -1.43125e-014
lhumerus -41.7021 -2.13895 86.0772
lradius 21.9708
lwrist -1.54044
lhand -10.5519 -25.714
lfingers 7.12502
lthumb 15.4521 3.68844
rfemur -5.68492 -3.05975 15.942
rtibia 56.0687
rfoot 12.606 -3.38019
rtoes -21.7348
lfemur -24.3422 5.01225 -26.497
ltibia 23.5167
lfoot -4.85559 5.01889
ltoes 2.7896
